<svg width="500" height="500" viewBox="0 0 500 500" fill="none" xmlns="http://www.w3.org/2000/svg">
<g clip-path="url(#clip0_1_249)">
<circle cx="250" cy="250" r="250" fill="#437FC7"/>
<mask id="mask0_1_249" style="mask-type:luminance" maskUnits="userSpaceOnUse" x="50" y="50" width="400" height="400">
<path d="M50 50H450V450H50V50Z" fill="white"/>
</mask>
<g mask="url(#mask0_1_249)">
<mask id="mask1_1_249" style="mask-type:luminance" maskUnits="userSpaceOnUse" x="50" y="50" width="400" height="400">
<path d="M250 50C139.542 50 50 139.542 50 250C50 360.458 139.542 450 250 450C360.458 450 450 360.458 450 250C450 139.542 360.458 50 250 50Z" fill="white"/>
</mask>
<g mask="url(#mask1_1_249)">
<path d="M50 50H450V450H50V50Z" fill="white"/>
</g>
</g>
<path d="M135.572 253.34C135.572 286.178 149.791 316.303 170.103 337.97C190.754 359.637 220.541 372.84 252.702 372.84C307.884 372.84 351.213 336.277 364.754 282.454H331.244C319.056 318.334 288.588 338.986 252.702 338.986C230.02 338.986 207.338 329.506 192.447 313.933C177.551 298.361 168.749 277.038 168.749 253.34C168.749 228.965 177.89 207.975 192.785 192.402C207.676 176.829 230.02 165.996 252.702 165.996C287.572 165.996 316.686 184.954 329.213 220.501H363.061C349.52 167.012 306.869 132.147 252.702 132.147C220.541 132.147 189.739 147.038 169.088 168.366C148.775 190.032 135.572 219.824 135.572 253.34Z" fill="#437FC7"/>
</g>
<defs>
<clipPath id="clip0_1_249">
<rect width="500" height="500" fill="white"/>
</clipPath>
</defs>
</svg>
